# xmcd
#
# Track frame offsets:
#	150
#	18995
#	35850
#	58420
#	77450
#	93775
#	110370
#	130247
#	146677
#	159849
#	185399
#
# Disc length: 2803 seconds
#
# Revision: 1
# Processed by: cddbd v1.5.2PL0 Copyright (c) Steve Scherf et al.
# Submitted via: audiograbber 1.83.01
#
DISCID=8a0af10b
DTITLE=BDL - Retribution
DYEAR=2014
DGENRE=Bluesrock
TTITLE0=Retribution
TTITLE1=Nowhere Else To Go
TTITLE2=Blues In D-Fat
TTITLE3=The Hard Way
TTITLE4=Still Breathing
TTITLE5=Bitter Man
TTITLE6=Storm Is Coming
TTITLE7=Help Me
TTITLE8=I Don't Care
TTITLE9=Never Going Back
TTITLE10=The Balad Of John Henry
EXTD=
EXTT0=
EXTT1=
EXTT2=
EXTT3=
EXTT4=
EXTT5=
EXTT6=
EXTT7=
EXTT8=
EXTT9=
EXTT10=
PLAYORDER=
